<svg preserveAspectRatio="none" width="100%" height="100%" overflow="visible" style="display: block;" viewBox="0 0 14.76 14.76" fill="none" xmlns="http://www.w3.org/2000/svg">
<g id="&#240;&#159;&#166;&#134; icon &#34;adobe photoshop&#34;">
<path id="Vector" d="M0 5.3417C0 3.47194 0 2.53705 0.363881 1.82289C0.683963 1.1947 1.1947 0.683963 1.82289 0.363881C2.53705 0 3.47194 0 5.3417 0H9.4183C11.2881 0 12.223 0 12.9371 0.363881C13.5653 0.683963 14.076 1.1947 14.3961 1.82289C14.76 2.53705 14.76 3.47194 14.76 5.3417V9.4183C14.76 11.2881 14.76 12.223 14.3961 12.9371C14.076 13.5653 13.5653 14.076 12.9371 14.3961C12.223 14.76 11.2881 14.76 9.4183 14.76H5.3417C3.47194 14.76 2.53705 14.76 1.82289 14.3961C1.1947 14.076 0.683963 13.5653 0.363881 12.9371C0 12.223 0 11.2881 0 9.4183V5.3417Z" fill="var(--fill-0, #001E36)"/>
<g id="Group">
<path id="Vector_2" d="M3.16286 10.815V4.32436C3.16286 4.28024 3.18131 4.25499 3.22436 4.25499C3.8599 4.25499 4.49516 4.21714 5.13084 4.21714C6.16241 4.21714 7.27932 4.56985 7.67082 5.64897C7.76307 5.91391 7.81226 6.18513 7.81226 6.46899C7.81226 7.01147 7.68927 7.45928 7.44326 7.81252C6.75607 8.79923 5.56505 8.78389 4.49742 8.78389V10.8087C4.50575 10.8686 4.45467 10.897 4.40517 10.897H3.23666C3.18746 10.897 3.16286 10.8717 3.16286 10.815ZM4.50354 5.47238V7.59175C4.92689 7.62275 5.36985 7.62612 5.77659 7.49086C6.22566 7.36129 6.47157 6.97262 6.47157 6.50684C6.48401 6.10996 6.26778 5.72915 5.89962 5.58592C5.49778 5.41882 4.93733 5.4088 4.50354 5.47238Z" fill="var(--fill-0, #31A8FF)"/>
<path id="Vector_3" d="M11.6481 7.17304C11.462 7.07494 11.2638 7.0032 11.0589 6.95976C10.7957 6.89782 9.75731 6.68085 9.75689 7.22381C9.76611 7.52691 10.2473 7.67541 10.4599 7.76202C11.2063 8.01826 12.0509 8.4763 12.0342 9.39706C12.0571 10.5433 10.9465 11.0015 9.99452 11.0016C9.49896 11.0067 8.98267 10.93 8.52912 10.7172C8.48579 10.6943 8.45795 10.6453 8.4598 10.5954V9.49859C8.4549 9.45462 8.50213 9.41619 8.53903 9.44782C8.98341 9.71656 9.51013 9.84708 10.0243 9.85404C10.2512 9.85404 10.7009 9.83206 10.6976 9.49859C10.6976 9.17861 10.1595 9.03149 9.94502 8.9502C9.63411 8.83924 9.33934 8.68547 9.06875 8.49322C8.69058 8.22348 8.45337 7.79101 8.4598 7.31521C8.45758 6.23594 9.47987 5.7515 10.4005 5.75129C10.8309 5.7477 11.2931 5.77959 11.6937 5.95439C11.7513 5.97132 11.7632 6.03204 11.763 6.08639V7.11211C11.7667 7.17578 11.696 7.19745 11.6481 7.17304Z" fill="var(--fill-0, #31A8FF)"/>
</g>
</g>
</svg>
