<svg preserveAspectRatio="none" width="100%" height="100%" overflow="visible" style="display: block;" viewBox="0 0 14.76 14.76" fill="none" xmlns="http://www.w3.org/2000/svg">
<g id="&#240;&#159;&#166;&#134; icon &#34;adobe illustrator&#34;">
<path id="Vector" d="M0 5.3417C0 3.47194 0 2.53705 0.363881 1.82289C0.683963 1.1947 1.1947 0.683963 1.82289 0.363881C2.53705 0 3.47194 0 5.3417 0H9.4183C11.2881 0 12.223 0 12.9371 0.363881C13.5653 0.683963 14.076 1.1947 14.3961 1.82289C14.76 2.53705 14.76 3.47194 14.76 5.3417V9.4183C14.76 11.2881 14.76 12.223 14.3961 12.9371C14.076 13.5653 13.5653 14.076 12.9371 14.3961C12.223 14.76 11.2881 14.76 9.4183 14.76H5.3417C3.47194 14.76 2.53705 14.76 1.82289 14.3961C1.1947 14.076 0.683963 13.5653 0.363881 12.9371C0 12.223 0 11.2881 0 9.4183V5.3417Z" fill="var(--fill-0, #330000)"/>
<g id="Group">
<path id="Vector_2" d="M7.15259 9.27577H4.86537L4.40001 10.7585C4.38709 10.8135 4.33638 10.8526 4.28119 10.8498H3.12271C3.05664 10.8498 3.03354 10.8126 3.0534 10.7381L5.03369 4.88862C5.05351 4.82768 5.07333 4.75831 5.0931 4.68045C5.11903 4.54492 5.13226 4.40723 5.13274 4.26917C5.12705 4.22837 5.16289 4.19234 5.20201 4.19805H6.77637C6.8225 4.19805 6.84885 4.21498 6.85555 4.24883L9.10323 10.7483C9.123 10.816 9.10323 10.8499 9.04382 10.8498H7.75659C7.71147 10.855 7.66835 10.824 7.65759 10.7788L7.15259 9.27577ZM5.22183 7.99618H6.78628C6.52925 7.11785 6.23916 6.25107 6.00405 5.36595C5.75039 6.2526 5.47364 7.13567 5.22183 7.99618Z" fill="var(--fill-0, #FF9A00)"/>
<path id="Vector_3" d="M10.4398 5.27449C10.3388 5.27865 10.2381 5.26089 10.1442 5.22241C10.0504 5.18393 9.96553 5.12552 9.89521 5.05109C9.8251 4.97338 9.7706 4.88229 9.73491 4.78293C9.69922 4.68361 9.68304 4.57803 9.68725 4.47223C9.68367 4.36749 9.70164 4.26317 9.74002 4.16604C9.77845 4.06892 9.83638 3.9812 9.91008 3.9086C9.98303 3.83675 10.0692 3.78047 10.1635 3.74299C10.2578 3.70551 10.3585 3.68759 10.4596 3.69026C10.6973 3.69026 10.8837 3.76304 11.019 3.9086C11.0873 3.98424 11.1404 4.07296 11.1753 4.16968C11.2101 4.26638 11.226 4.36923 11.222 4.47223C11.2261 4.5784 11.2094 4.6844 11.1728 4.78382C11.1363 4.88324 11.0806 4.97412 11.0091 5.05109C10.9344 5.12662 10.8452 5.18545 10.7473 5.22394C10.6493 5.26236 10.5446 5.2796 10.4398 5.27449ZM9.75657 10.7482V5.89399C9.75657 5.83305 9.78288 5.80258 9.8358 5.80258H11.0537C11.1064 5.80258 11.1328 5.83305 11.1329 5.89399V10.7482C11.1329 10.816 11.1065 10.8499 11.0537 10.8498H9.84571C9.7863 10.8498 9.75657 10.816 9.75657 10.7482Z" fill="var(--fill-0, #FF9A00)"/>
</g>
</g>
</svg>
