<svg preserveAspectRatio="none" width="100%" height="100%" overflow="visible" style="display: block;" viewBox="0 0 19.4999 15.9549" fill="none" xmlns="http://www.w3.org/2000/svg">
<g id="logoMeet">
<path id="Vector" d="M0 14.6782C0 15.3834 0.57612 15.9546 1.28595 15.9546H1.30443C0.583734 15.9546 0 15.3834 0 14.6782Z" fill="var(--fill-0, #FBBC05)"/>
<path id="Vector_2" d="M11.0506 4.78636V8.11873L15.5433 4.49493V1.27636C15.5433 0.571172 14.9671 0 14.2573 0L4.52406 0L4.51536 4.78636H11.0506Z" fill="var(--fill-0, #FBBC05)"/>
<path id="Vector_3" d="M11.0509 11.4525H4.50479L4.49718 15.9549H14.2576C14.9685 15.9549 15.5436 15.3837 15.5436 14.6785V11.7727L11.0509 8.12013V11.4525V11.4525Z" fill="var(--fill-0, #34A853)"/>
<path id="Vector_4" d="M4.52421 0L0 4.78636H4.5166L4.52421 0Z" fill="var(--fill-0, #EA4335)"/>
<path id="Vector_5" d="M0 11.4522V14.6782C0 15.3834 0.583734 15.9546 1.30443 15.9546H4.49704L4.50465 11.4522H0V11.4522Z" fill="var(--fill-0, #1967D2)"/>
<path id="Vector_6" d="M4.5166 4.78636H0V11.4522H4.50465L4.5166 4.78636Z" fill="var(--fill-0, #4285F4)"/>
<path id="Vector_7" d="M19.4935 13.5436V2.58814C19.2402 1.13415 17.6455 2.80087 17.6455 2.80087L15.5443 4.49524V11.7716L18.5521 14.2169C19.6381 14.3594 19.4935 13.5436 19.4935 13.5436Z" fill="var(--fill-0, #34A853)"/>
<path id="Vector_8" d="M11.0506 8.11874L15.5444 11.7723V4.49599L11.0506 8.11874Z" fill="var(--fill-0, #188038)"/>
</g>
</svg>
